<?xml version="1.0" standalone="no"?>
<!DOCTYPE svg PUBLIC "-//W3C//DTD SVG 20010904//EN"
 "http://www.w3.org/TR/2001/REC-SVG-20010904/DTD/svg10.dtd">
<svg version="1.0" xmlns="http://www.w3.org/2000/svg"
 width="249.000000pt" height="206.000000pt" viewBox="0 0 249.000000 206.000000"
 preserveAspectRatio="xMidYMid meet">

<g transform="translate(0.000000,206.000000) scale(0.100000,-0.100000)"
fill="#000000" stroke="none">
<path d="M947 1844 c-4 -4 -7 -65 -7 -136 l0 -128 130 0 131 0 -3 133 -3 132
-121 3 c-66 1 -123 -1 -127 -4z"/>
<path d="M944 1557 c-2 -7 -3 -67 -2 -133 l3 -119 125 0 125 0 0 130 0 130
-123 3 c-95 2 -124 0 -128 -11z"/>
<path d="M1310 1440 l0 -130 125 0 125 0 0 130 0 130 -125 0 -125 0 0 -130z"/>
<path d="M1310 1165 l0 -135 125 0 126 0 -3 133 -3 132 -122 3 -123 3 0 -136z"/>
<path d="M1670 1165 l0 -135 125 0 125 0 0 135 0 135 -125 0 -125 0 0 -135z"/>
<path d="M582 1158 l3 -133 125 0 125 0 3 133 3 132 -131 0 -131 0 3 -132z"/>
<path d="M942 1158 l3 -133 125 0 125 0 3 133 3 132 -131 0 -131 0 3 -132z"/>
<path d="M1310 885 l0 -135 125 0 125 0 0 135 0 135 -125 0 -125 0 0 -135z"/>
<path d="M1670 885 l0 -135 125 0 125 0 0 135 0 135 -125 0 -125 0 0 -135z"/>
<path d="M220 880 l0 -130 125 0 125 0 0 130 0 130 -125 0 -125 0 0 -130z"/>
<path d="M580 880 l0 -130 130 0 130 0 0 130 0 130 -130 0 -130 0 0 -130z"/>
<path d="M940 880 l0 -130 130 0 130 0 0 130 0 130 -130 0 -130 0 0 -130z"/>
<path d="M2030 880 l0 -130 125 0 125 0 0 130 0 130 -125 0 -125 0 0 -130z"/>
<path d="M220 605 l0 -135 125 0 125 0 0 135 0 135 -125 0 -125 0 0 -135z"/>
<path d="M587 734 c-4 -4 -7 -65 -7 -136 l0 -128 130 0 131 0 -3 133 -3 132
-121 3 c-66 1 -123 -1 -127 -4z"/>
<path d="M947 734 c-4 -4 -7 -65 -7 -136 l0 -128 130 0 131 0 -3 133 -3 132
-121 3 c-66 1 -123 -1 -127 -4z"/>
<path d="M1310 605 l0 -136 123 3 122 3 3 133 3 132 -126 0 -125 0 0 -135z"/>
<path d="M1670 605 l0 -135 125 0 125 0 0 135 0 135 -125 0 -125 0 0 -135z"/>
<path d="M2037 733 c-4 -3 -7 -64 -7 -135 l0 -128 125 0 125 0 0 135 0 135
-118 0 c-65 0 -122 -3 -125 -7z"/>
<path d="M220 325 l0 -135 125 0 125 0 0 135 0 135 -125 0 -125 0 0 -135z"/>
<path d="M584 447 c-2 -7 -3 -67 -2 -133 l3 -119 125 0 125 0 0 130 0 130
-123 3 c-95 2 -124 0 -128 -11z"/>
<path d="M944 447 c-2 -7 -3 -67 -2 -133 l3 -119 125 0 125 0 0 130 0 130
-123 3 c-95 2 -124 0 -128 -11z"/>
<path d="M1310 330 l0 -130 125 0 125 0 0 130 0 130 -125 0 -125 0 0 -130z"/>
<path d="M1670 330 l0 -130 125 0 125 0 0 130 0 130 -125 0 -125 0 0 -130z"/>
<path d="M2034 447 c-2 -7 -3 -67 -2 -133 l3 -119 123 -3 122 -3 0 136 0 135
-120 0 c-90 0 -122 -3 -126 -13z"/>
</g>
</svg>
