<?xml version="1.0" encoding="UTF-8"?>
<svg version="1.1" xmlns="http://www.w3.org/2000/svg" width="249" height="206">
<path d="M0 0 C8.58 0 17.16 0 26 0 C26 27.06 26 54.12 26 82 C17.42 82 8.84 82 0 82 C0 54.94 0 27.88 0 0 Z " fill="#FFFFFF" transform="translate(94,77)"/>
<path d="M0 0 C8.58 0 17.16 0 26 0 C26 27.06 26 54.12 26 82 C17.42 82 8.84 82 0 82 C0 54.94 0 27.88 0 0 Z " fill="#FFFFFF" transform="translate(58,77)"/>
<path d="M0 0 C8.91 0 17.82 0 27 0 C27.02290196 7.67215605 27.0428312 15.34419447 27.05493164 23.01635742 C27.05997377 25.62866619 27.06680725 28.24097211 27.07543945 30.85327148 C27.08751036 34.59880268 27.09322935 38.34429672 27.09765625 42.08984375 C27.10281754 43.26586655 27.10797882 44.44188934 27.11329651 45.65354919 C27.11340981 47.27511681 27.11340981 47.27511681 27.11352539 48.92944336 C27.115746 49.88652695 27.11796661 50.84361053 27.12025452 51.82969666 C27 54 27 54 26 55 C24.15840977 55.09959621 22.31303033 55.13080411 20.46875 55.1328125 C19.34855469 55.13410156 18.22835937 55.13539063 17.07421875 55.13671875 C15.89472656 55.13285156 14.71523437 55.12898438 13.5 55.125 C11.73076172 55.13080078 11.73076172 55.13080078 9.92578125 55.13671875 C8.24548828 55.13478516 8.24548828 55.13478516 6.53125 55.1328125 C5.49548828 55.13168457 4.45972656 55.13055664 3.39257812 55.12939453 C1 55 1 55 0 54 C-0.09353163 52.31198015 -0.11744791 50.62004793 -0.11352539 48.92944336 C-0.11344986 47.84839828 -0.11337433 46.76735321 -0.11329651 45.65354919 C-0.10813522 44.4775264 -0.10297394 43.3015036 -0.09765625 42.08984375 C-0.0962413 40.89267227 -0.09482635 39.69550079 -0.09336853 38.46205139 C-0.08774979 34.62050934 -0.07519411 30.77902457 -0.0625 26.9375 C-0.05748741 24.34049563 -0.05292409 21.74349035 -0.04882812 19.14648438 C-0.03862313 12.76428284 -0.01905136 6.3822059 0 0 Z " fill="#FFFFFF" transform="translate(166,132)"/>
<path d="M0 0 C8.58 0 17.16 0 26 0 C26 18.15 26 36.3 26 55 C17.42 55 8.84 55 0 55 C-1.66716684 53.33283316 -1.12744882 51.3269386 -1.12939453 49.03710938 C-1.13254669 47.97931274 -1.13569885 46.92151611 -1.13894653 45.83166504 C-1.13591019 44.10514709 -1.13591019 44.10514709 -1.1328125 42.34375 C-1.13376923 41.17114624 -1.13472595 39.99854248 -1.13571167 38.79040527 C-1.1363937 36.30541938 -1.13453784 33.82043171 -1.13037109 31.33544922 C-1.12502319 27.51656113 -1.13031536 23.69779065 -1.13671875 19.87890625 C-1.13605797 17.47135391 -1.13477682 15.06380163 -1.1328125 12.65625 C-1.13483673 11.50523804 -1.13686096 10.35422607 -1.13894653 9.16833496 C-1.13579437 8.11053833 -1.13264221 7.0527417 -1.12939453 5.96289062 C-1.12859894 5.02658813 -1.12780334 4.09028564 -1.12698364 3.12561035 C-1 1 -1 1 0 0 Z " fill="#FFFFFF" transform="translate(22,104)"/>
<path d="M0 0 C8.58 0 17.16 0 26 0 C26 18.15 26 36.3 26 55 C17.42 55 8.84 55 0 55 C0 36.85 0 18.7 0 0 Z " fill="#FFFFFF" transform="translate(130,132)"/>
<path d="M0 0 C8.58 0 17.16 0 26 0 C26 18.15 26 36.3 26 55 C17.42 55 8.84 55 0 55 C0 36.85 0 18.7 0 0 Z " fill="#FFFFFF" transform="translate(130,48)"/>
<path d="M0 0 C8.58 0 17.16 0 26 0 C26 18.15 26 36.3 26 55 C17.42 55 8.84 55 0 55 C0 36.85 0 18.7 0 0 Z " fill="#FFFFFF" transform="translate(94,21)"/>
<path d="M0 0 C8.25 0 16.5 0 25 0 C25 18.15 25 36.3 25 55 C16.75 55 8.5 55 0 55 C0 36.85 0 18.7 0 0 Z " fill="#FFFFFF" transform="translate(203,104)"/>
<path d="M0 0 C8.91 0 17.82 0 27 0 C27 8.91 27 17.82 27 27 C18.09 27 9.18 27 0 27 C0 18.09 0 9.18 0 0 Z " fill="#FFFFFF" transform="translate(166,104)"/>
<path d="M0 0 C8.91 0 17.82 0 27 0 C27 8.91 27 17.82 27 27 C18.09 27 9.18 27 0 27 C0 18.09 0 9.18 0 0 Z " fill="#FFFFFF" transform="translate(166,76)"/>
<path d="M0 0 C1.084021 0.00523682 2.16804199 0.01047363 3.28491211 0.01586914 C4.33815674 0.0183667 5.39140137 0.02086426 6.4765625 0.0234375 C7.82484131 0.0325415 9.17312012 0.04164551 10.56225586 0.05102539 C14.83163086 0.07165039 19.10100586 0.09227539 23.49975586 0.11352539 C23.49975586 9.02352539 23.49975586 17.93352539 23.49975586 27.11352539 C19.23038086 27.13415039 14.96100586 27.15477539 10.56225586 27.17602539 C8.53983765 27.1896814 8.53983765 27.1896814 6.4765625 27.20361328 C4.89669556 27.20735962 4.89669556 27.20735962 3.28491211 27.21118164 C1.65888062 27.21903687 1.65888062 27.21903687 0 27.22705078 C-2.50024414 27.11352539 -2.50024414 27.11352539 -3.50024414 26.11352539 C-3.59984035 24.27193516 -3.63104825 22.42655572 -3.63305664 20.58227539 C-3.6343457 19.46208008 -3.63563477 18.34188477 -3.63696289 17.18774414 C-3.6330957 16.00825195 -3.62922852 14.82875977 -3.62524414 13.61352539 C-3.62911133 12.4340332 -3.63297852 11.25454102 -3.63696289 10.03930664 C-3.63567383 8.91911133 -3.63438477 7.79891602 -3.63305664 6.64477539 C-3.63192871 5.60901367 -3.63080078 4.57325195 -3.62963867 3.50610352 C-3.45159922 0.21405335 -3.30223573 0.1499404 0 0 Z " fill="#FFFFFF" transform="translate(24.500244140625,159.886474609375)"/>
<path d="M0 0 C8.58 0 17.16 0 26 0 C26 8.91 26 17.82 26 27 C17.42 27 8.84 27 0 27 C0 18.09 0 9.18 0 0 Z " fill="#FFFFFF" transform="translate(94,160)"/>
<path d="M0 0 C8.58 0 17.16 0 26 0 C26 8.91 26 17.82 26 27 C17.42 27 8.84 27 0 27 C0 18.09 0 9.18 0 0 Z " fill="#FFFFFF" transform="translate(58,160)"/>
<path d="M0 0 C8.58 0 17.16 0 26 0 C26 8.91 26 17.82 26 27 C17.42 27 8.84 27 0 27 C0 18.09 0 9.18 0 0 Z " fill="#FFFFFF" transform="translate(130,104)"/>
<path d="M0 0 C8.25 0 16.5 0 25 0 C25 8.91 25 17.82 25 27 C16.75 27 8.5 27 0 27 C0 18.09 0 9.18 0 0 Z " fill="#FFFFFF" transform="translate(203,160)"/>
</svg>
